#N canvas 4 22 1276 756 10;
#X obj 142 180 tgl 15 0 empty empty empty 17 7 0 10 -262144 -1 -1 0
1;
#X msg 142 242 \; pd dsp \$1;
#X obj 368 216 vsl 15 120 0 1 0 0 vol1 loadVol1 empty 0 -9 0 10 -232576
-1 -1 0 1;
#X obj 392 216 vu 15 120 vu1 empty -1 -8 0 10 -66577 -1 1 0;
#X obj 277 152 bng 15 250 50 0 empty empty empty 17 7 0 10 -262144
-1 -1;
#N canvas 0 22 450 278 (subpatch) 0;
#X array left1 7.6734e+06 float 0;
#X coords 0 1 7.6734e+06 -1 80 50 1 0 0;
#X restore 276 213 graph;
#N canvas 0 22 450 278 (subpatch) 0;
#X array right1 7.6734e+06 float 0;
#X coords 0 1 7.6734e+06 -1 80 50 1 0 0;
#X restore 276 287 graph;
#X text 160 179 <-- AUDIO ON;
#X text 166 306 <-- SENSOR ON;
#X text 145 161 1;
#X text 146 288 2;
#X text 298 150 <-- LOAD SAMPLE 1;
#X obj 538 216 vsl 15 120 0 1 0 0 vol2 loadVol2 empty 0 -9 0 10 -232576
-1 -1 0 1;
#X obj 562 216 vu 15 120 vu2 empty -1 -8 0 10 -66577 -1 1 0;
#X obj 447 152 bng 15 250 50 0 empty empty empty 17 7 0 10 -262144
-1 -1;
#N canvas 0 22 450 278 (subpatch) 0;
#X array left2 7.6734e+06 float 0;
#X coords 0 1 7.6734e+06 -1 80 50 1 0 0;
#X restore 446 213 graph;
#N canvas 0 22 450 278 (subpatch) 0;
#X array right2 7.6734e+06 float 0;
#X coords 0 1 7.6734e+06 -1 80 50 1 0 0;
#X restore 446 287 graph;
#X obj 708 216 vsl 15 120 0 1 0 0 vol3 loadVol3 empty 0 -9 0 10 -232576
-1 -1 0 1;
#X obj 732 216 vu 15 120 vu3 empty -1 -8 0 10 -66577 -1 1 0;
#X obj 617 152 bng 15 250 50 0 empty empty empty 17 7 0 10 -262144
-1 -1;
#N canvas 0 22 450 278 (subpatch) 0;
#X array left3 7.6734e+06 float 0;
#X coords 0 1 7.6734e+06 -1 80 50 1 0 0;
#X restore 616 213 graph;
#N canvas 0 22 450 278 (subpatch) 0;
#X array right3 7.6734e+06 float 0;
#X coords 0 1 7.6734e+06 -1 80 50 1 0 0;
#X restore 616 287 graph;
#X obj 878 216 vsl 15 120 0 1 0 0 vol4 loadVol4 empty 0 -9 0 10 -232576
-1 -1 0 1;
#X obj 902 216 vu 15 120 vu4 empty -1 -8 0 10 -66577 -1 1 0;
#X obj 787 152 bng 15 250 50 0 empty empty empty 17 7 0 10 -262144
-1 -1;
#N canvas 0 22 450 278 (subpatch) 0;
#X array left4 7.6734e+06 float 0;
#X coords 0 1 7.6734e+06 -1 80 50 1 0 0;
#X restore 786 213 graph;
#N canvas 0 22 450 278 (subpatch) 0;
#X array right4 7.6734e+06 float 0;
#X coords 0 1 7.6734e+06 -1 80 50 1 0 0;
#X restore 786 287 graph;
#X text 468 150 <-- LOAD SAMPLE 2;
#X text 808 150 <-- LOAD SAMPLE 4;
#X text 450 138 4;
#X text 621 137 5;
#X text 790 137 6;
#X text 281 137 3;
#X obj 277 173 s sample1;
#X obj 447 174 s sample2;
#X obj 617 172 s sample3;
#X obj 787 172 s sample4;
#X obj 315 386 vsl 80 128 0 1 0 0 empty sv1 empty 0 -9 0 10 -262144
-1 -1 0 1;
#X obj 485 386 vsl 80 128 0 1 0 0 empty sv2 empty 0 -9 0 10 -262144
-1 -1 0 1;
#X obj 655 386 vsl 80 128 0 1 0 0 empty sv3 empty 0 -9 0 10 -262144
-1 -1 0 1;
#X obj 825 386 vsl 80 128 0 1 0 0 empty sv4 empty 0 -9 0 10 -262144
-1 -1 0 1;
#N canvas 3 22 1276 756 main 0;
#X floatatom 75 193 5 0 0 3 a0 - -;
#X floatatom 121 193 5 0 0 3 a1 - -;
#X floatatom 167 193 5 0 0 3 a2 - -;
#X floatatom 213 193 5 0 0 3 a3 - -;
#X floatatom 259 193 5 0 0 3 a4 - -;
#X floatatom 305 193 5 0 0 3 a5 - -;
#X floatatom 351 193 5 0 0 3 a6 - -;
#X floatatom 397 193 5 0 0 3 a7 - -;
#X obj 174 136 route 0 1 2 3 4 5 6 7;
#X text 62 136 analog inputs:;
#X obj 75 267 * 1000;
#X obj 146 267 * 1000;
#X obj 215 267 * 1000;
#X obj 285 265 * 1000;
#X floatatom 75 294 5 0 0 0 - - -;
#X floatatom 146 294 5 0 0 0 - - -;
#X floatatom 215 294 5 0 0 0 - - -;
#X floatatom 285 292 5 0 0 0 - - -;
#N canvas 395 22 901 628 arduino_config 0;
#X obj 162 161 cnv 15 100 22 empty empty empty 20 12 0 14 -253938 -66577
0;
#X obj 334 265 cnv 15 85 22 empty empty empty 20 12 0 14 -253938 -66577
0;
#X obj -49 139 cnv 15 60 22 empty empty empty 20 12 0 14 -253938 -66577
0;
#N canvas 146 163 525 433 serin 0;
#X obj 180 61 cnv 15 15 15 empty \$0-number-canvas 2 4 8 0 14 -233017
-1 0;
#X obj 200 225 s \$0-number-canvas;
#X obj 60 61 hradio 15 1 1 8 empty empty empty 0 -6 0 8 -225271 -1
-1 2;
#X obj 60 13 inlet;
#X msg 200 202 label \$1;
#X obj 200 180 makefilename %d;
#X obj 59 108 int;
#X msg 59 206 open \$1;
#X obj 59 377 outlet;
#X msg 201 306 set \$1 \$2;
#X obj 59 266 trigger bang anything;
#X obj 201 286 list;
#X obj 383 383 outlet;
#X obj 384 22 netreceive 34567;
#X obj 477 43 tgl 15 0 empty empty empty 0 -6 0 10 -262144 -1 -1 0
1;
#X obj 384 41 bng 15 250 50 0 empty empty empty 0 -6 0 10 -262144 -1
-1;
#X obj 187 24 delay 15000;
#X text 345 379 close;
#X text 209 4 for open/close automation in Makefile;
#X obj 184 95 bang;
#X obj 184 137 send ARDUINO_TEST_RESET;
#X msg 184 116 set 0;
#X connect 2 0 6 0;
#X connect 2 0 19 0;
#X connect 3 0 2 0;
#X connect 4 0 1 0;
#X connect 5 0 4 0;
#X connect 6 0 5 0;
#X connect 6 0 7 0;
#X connect 7 0 10 0;
#X connect 9 0 8 0;
#X connect 10 0 8 0;
#X connect 10 1 11 0;
#X connect 11 0 9 0;
#X connect 13 0 15 0;
#X connect 13 1 14 0;
#X connect 15 0 16 0;
#X connect 15 0 12 0;
#X connect 16 0 2 0;
#X connect 19 0 21 0;
#X connect 21 0 20 0;
#X coords 0 -1 1 1 136 17 1 60 60;
#X restore -43 118 pd serin;
#X text -46 100 serial port #;
#X msg 17 141 close;
#X obj 396 224 hsl 150 17 0 1 0 0 empty ARDUINO_TEST_RESET analog_output_(0-1)
20 9 1 10 -225271 -1 -1 0 0;
#X obj 342 186 hradio 15 1 0 14 empty empty empty 0 -6 0 8 -176124
-1 -1 0;
#X text 450 172 7;
#X text 344 172 0;
#X text 491 172 10;
#X text 537 172 13;
#X text 402 172 4;
#X text 373 172 2;
#X text 418 172 5;
#X text 433 172 6;
#X text 388 172 3;
#X text 464 172 8;
#X text 481 172 9;
#X text 507 172 11;
#X text 522 172 12;
#X text 359 172 1;
#X msg 50 181 info;
#X msg 50 201 version;
#N canvas 763 71 475 478 sending 0;
#X obj 69 228 cnv 15 100 22 empty empty empty 20 12 0 14 -253938 -66577
0;
#X obj 78 434 outlet;
#X msg 78 231 digital 9 1;
#X obj 127 148 tgl 15 0 empty ARDUINO_TEST_RESET 7 4 -6 1 12 -233017
-1 -1 0 1;
#X obj 144 148 tgl 15 0 empty ARDUINO_TEST_RESET 8 4 -6 1 12 -233017
-1 -1 0 1;
#X obj 161 148 tgl 15 0 empty ARDUINO_TEST_RESET 9 4 -6 1 12 -233017
-1 -1 0 1;
#X obj 178 148 tgl 15 0 empty ARDUINO_TEST_RESET 10 0 -6 1 12 -233017
-1 -1 0 1;
#X obj 195 148 tgl 15 0 empty ARDUINO_TEST_RESET 11 0 -6 1 12 -233017
-1 -1 0 1;
#X obj 212 148 tgl 15 0 empty ARDUINO_TEST_RESET 12 0 -6 1 12 -233017
-1 -1 0 1;
#X obj 229 148 tgl 15 0 empty ARDUINO_TEST_RESET 13 0 -6 1 12 -233017
-1 -1 0 1;
#X obj 42 148 tgl 15 0 empty ARDUINO_TEST_RESET 2 4 -6 1 12 -233017
-1 -1 0 1;
#X obj 59 148 tgl 15 0 empty ARDUINO_TEST_RESET 3 4 -6 1 12 -233017
-1 -1 0 1;
#X obj 76 148 tgl 15 0 empty ARDUINO_TEST_RESET 4 4 -6 1 12 -233017
-1 -1 0 1;
#X obj 93 148 tgl 15 0 empty ARDUINO_TEST_RESET 5 4 -6 1 12 -233017
-1 -1 0 1;
#X obj 110 148 tgl 15 0 empty ARDUINO_TEST_RESET 6 4 -6 1 12 -233017
-1 -1 0 1;
#X obj 418 123 tgl 25 0 empty ARDUINO_TEST_RESET ALL 2 12 0 12 -262144
-1 -1 0 1;
#X obj 388 72 tgl 15 0 empty empty empty 0 -6 0 8 -262144 -1 -1 0 16383
;
#X obj 388 92 metro 100;
#X obj 301 9 inlet;
#X obj 301 43 trigger 0 float;
#X obj 301 64 select 0;
#X msg 301 84 0;
#X msg 405 389 port 1 0;
#X msg 263 389 port 0 0;
#X msg 189 389 port 0 255;
#X msg 331 389 port 1 255;
#X text 95 291 or send 8-bit ports in one message:;
#X msg 159 338 port 1 \$1;
#X msg 91 338 port 0 \$1;
#X msg 230 338 port 2 \$1;
#X obj 362 297 tgl 25 0 empty ARDUINO_TEST_RESET ALL 2 12 0 12 -262144
-1 -1 0 1;
#X obj 362 246 tgl 15 0 empty empty empty 0 -6 0 8 -262144 -1 -1 0
16383;
#X obj 362 266 metro 100;
#X floatatom 362 329 5 0 0 0 - - -;
#X obj 246 148 tgl 15 0 empty ARDUINO_TEST_RESET 14 0 -6 1 12 -233017
-1 -1 0 1;
#X obj 263 148 tgl 15 0 empty ARDUINO_TEST_RESET 15 0 -6 1 12 -233017
-1 -1 0 1;
#X obj 280 148 tgl 15 0 empty ARDUINO_TEST_RESET 16 0 -6 1 12 -233017
-1 -1 0 1;
#X obj 297 148 tgl 15 0 empty ARDUINO_TEST_RESET 17 0 -6 1 12 -233017
-1 -1 0 1;
#X obj 314 148 tgl 15 0 empty ARDUINO_TEST_RESET 18 0 -6 1 12 -233017
-1 -1 0 1;
#X obj 331 148 tgl 15 0 empty ARDUINO_TEST_RESET 19 0 -6 1 12 -233017
-1 -1 0 1;
#X obj 348 148 tgl 15 0 empty ARDUINO_TEST_RESET 20 0 -6 1 12 -233017
-1 -1 0 1;
#X obj 365 148 tgl 15 0 empty ARDUINO_TEST_RESET 21 0 -6 1 12 -233017
-1 -1 0 1;
#N canvas 314 233 1035 340 generate 0;
#X obj 12 24 inlet;
#X obj 52 24 inlet;
#X obj 91 24 inlet;
#X obj 131 24 inlet;
#X obj 171 24 inlet;
#X obj 211 24 inlet;
#X obj 250 24 inlet;
#X obj 290 24 inlet;
#X obj 331 23 inlet;
#X obj 371 23 inlet;
#X obj 410 23 inlet;
#X obj 450 23 inlet;
#X obj 490 23 inlet;
#X msg 12 66 digital 0 \$1;
#X msg 52 88 digital 1 \$1;
#X msg 91 110 digital 2 \$1;
#X msg 131 130 digital 3 \$1;
#X msg 171 62 digital 4 \$1;
#X msg 211 84 digital 5 \$1;
#X msg 250 106 digital 6 \$1;
#X msg 290 126 digital 7 \$1;
#X msg 331 58 digital 8 \$1;
#X msg 371 80 digital 9 \$1;
#X msg 410 102 digital 10 \$1;
#X msg 450 122 digital 11 \$1;
#X msg 490 50 digital 12 \$1;
#X obj 529 23 inlet;
#X msg 529 70 digital 13 \$1;
#X obj 513 302 outlet;
#X obj 513 263 trigger bang anything;
#X obj 513 214 list prepend set;
#X obj 513 238 list trim;
#X obj 570 23 inlet;
#X obj 610 23 inlet;
#X obj 650 23 inlet;
#X obj 689 23 inlet;
#X msg 570 102 digital 14 \$1;
#X msg 610 122 digital 15 \$1;
#X msg 650 50 digital 16 \$1;
#X msg 689 70 digital 17 \$1;
#X obj 730 23 inlet;
#X obj 770 23 inlet;
#X obj 810 23 inlet;
#X obj 849 23 inlet;
#X msg 730 102 digital 18 \$1;
#X msg 770 122 digital 19 \$1;
#X msg 810 50 digital 20 \$1;
#X msg 849 70 digital 21 \$1;
#X obj 890 23 inlet;
#X obj 930 23 inlet;
#X msg 890 102 digital 22 \$1;
#X msg 930 122 digital 23 \$1;
#X connect 0 0 13 0;
#X connect 1 0 14 0;
#X connect 2 0 15 0;
#X connect 3 0 16 0;
#X connect 4 0 17 0;
#X connect 5 0 18 0;
#X connect 6 0 19 0;
#X connect 7 0 20 0;
#X connect 8 0 21 0;
#X connect 9 0 22 0;
#X connect 10 0 23 0;
#X connect 11 0 24 0;
#X connect 12 0 25 0;
#X connect 13 0 30 0;
#X connect 14 0 30 0;
#X connect 15 0 30 0;
#X connect 16 0 30 0;
#X connect 17 0 30 0;
#X connect 18 0 30 0;
#X connect 19 0 30 0;
#X connect 20 0 30 0;
#X connect 21 0 30 0;
#X connect 22 0 30 0;
#X connect 23 0 30 0;
#X connect 24 0 30 0;
#X connect 25 0 30 0;
#X connect 26 0 27 0;
#X connect 27 0 30 0;
#X connect 29 0 28 0;
#X connect 29 1 28 0;
#X connect 30 0 31 0;
#X connect 31 0 29 0;
#X connect 32 0 36 0;
#X connect 33 0 37 0;
#X connect 34 0 38 0;
#X connect 35 0 39 0;
#X connect 36 0 30 0;
#X connect 37 0 30 0;
#X connect 38 0 30 0;
#X connect 39 0 30 0;
#X connect 40 0 44 0;
#X connect 41 0 45 0;
#X connect 42 0 46 0;
#X connect 43 0 47 0;
#X connect 44 0 30 0;
#X connect 45 0 30 0;
#X connect 46 0 30 0;
#X connect 47 0 30 0;
#X connect 48 0 50 0;
#X connect 49 0 51 0;
#X connect 50 0 30 0;
#X connect 51 0 30 0;
#X restore 78 201 pd generate digital out messages ------------------
;
#X obj 382 148 tgl 15 0 empty ARDUINO_TEST_RESET 22 0 -6 1 12 -233017
-1 -1 0 1;
#X obj 399 148 tgl 15 0 empty ARDUINO_TEST_RESET 23 0 -6 1 12 -233017
-1 -1 0 1;
#X obj 8 148 tgl 15 0 empty ARDUINO_TEST_RESET 0 4 -6 1 12 -233017
-1 -1 0 1;
#X obj 25 148 tgl 15 0 empty ARDUINO_TEST_RESET 1 4 -6 1 12 -233017
-1 -1 0 1;
#X connect 2 0 1 0;
#X connect 3 0 42 7;
#X connect 4 0 42 8;
#X connect 5 0 42 9;
#X connect 6 0 42 10;
#X connect 7 0 42 11;
#X connect 8 0 42 12;
#X connect 9 0 42 13;
#X connect 10 0 42 2;
#X connect 11 0 42 3;
#X connect 12 0 42 4;
#X connect 13 0 42 5;
#X connect 14 0 42 6;
#X connect 15 0 9 0;
#X connect 15 0 8 0;
#X connect 15 0 7 0;
#X connect 15 0 6 0;
#X connect 15 0 5 0;
#X connect 15 0 4 0;
#X connect 15 0 3 0;
#X connect 15 0 14 0;
#X connect 15 0 13 0;
#X connect 15 0 12 0;
#X connect 15 0 11 0;
#X connect 15 0 10 0;
#X connect 15 0 39 0;
#X connect 15 0 40 0;
#X connect 15 0 41 0;
#X connect 15 0 38 0;
#X connect 15 0 37 0;
#X connect 15 0 36 0;
#X connect 15 0 35 0;
#X connect 15 0 34 0;
#X connect 15 0 44 0;
#X connect 15 0 43 0;
#X connect 15 0 46 0;
#X connect 15 0 45 0;
#X connect 16 0 17 0;
#X connect 17 0 15 0;
#X connect 18 0 19 0;
#X connect 19 0 20 0;
#X connect 19 1 16 0;
#X connect 20 0 21 0;
#X connect 21 0 15 0;
#X connect 22 0 1 0;
#X connect 23 0 1 0;
#X connect 24 0 1 0;
#X connect 25 0 1 0;
#X connect 27 0 1 0;
#X connect 28 0 1 0;
#X connect 29 0 1 0;
#X connect 30 0 33 0;
#X connect 30 0 29 0;
#X connect 30 0 27 0;
#X connect 30 0 28 0;
#X connect 31 0 32 0;
#X connect 32 0 30 0;
#X connect 34 0 42 14;
#X connect 35 0 42 15;
#X connect 36 0 42 16;
#X connect 37 0 42 17;
#X connect 38 0 42 18;
#X connect 39 0 42 19;
#X connect 40 0 42 20;
#X connect 41 0 42 21;
#X connect 42 0 2 0;
#X connect 43 0 42 22;
#X connect 44 0 42 23;
#X connect 45 0 42 0;
#X connect 46 0 42 1;
#X restore 340 317 pd sending digital outs;
#X obj 340 298 tgl 15 0 empty ARDUINO_TEST_RESET empty 0 -6 0 8 -225271
-1 -1 0 16383;
#X obj 326 502 route 0 1 2 3 4 5 6 7 8 9 10 11 12 13;
#X obj 357 524 tgl 15 0 empty ARDUINO_TEST_RESET 2 4 23 1 12 -232448
-1 -1 0 1;
#X obj 374 524 tgl 15 0 empty ARDUINO_TEST_RESET 3 4 23 1 12 -232448
-1 -1 0 1;
#X obj 391 524 tgl 15 0 empty ARDUINO_TEST_RESET 4 4 23 1 12 -232448
-1 -1 0 1;
#X obj 408 524 tgl 15 0 empty ARDUINO_TEST_RESET 5 4 23 1 12 -232448
-1 -1 0 1;
#X obj 425 524 tgl 15 0 empty ARDUINO_TEST_RESET 6 4 23 1 12 -232448
-1 -1 0 1;
#X obj 442 524 tgl 15 0 empty ARDUINO_TEST_RESET 7 4 23 1 12 -232448
-1 -1 0 1;
#X obj 459 524 tgl 15 0 empty ARDUINO_TEST_RESET 8 4 23 1 12 -232448
-1 -1 0 1;
#X obj 476 524 tgl 15 0 empty ARDUINO_TEST_RESET 9 4 23 1 12 -232448
-1 -1 0 1;
#X obj 493 524 tgl 15 0 empty ARDUINO_TEST_RESET 10 0 23 1 12 -232448
-1 -1 0 1;
#X obj 510 524 tgl 15 0 empty ARDUINO_TEST_RESET 11 0 23 1 12 -232448
-1 -1 0 1;
#X obj 527 524 tgl 15 0 empty ARDUINO_TEST_RESET 12 0 23 1 12 -232448
-1 -1 0 1;
#X obj 544 524 tgl 15 0 empty ARDUINO_TEST_RESET 13 0 23 1 12 -232448
-1 -1 0 1;
#N canvas 3 48 451 224 ver 0;
#X obj 23 7 inlet;
#X obj 250 100 cnv 15 145 17 empty \$0-version_cnv empty 4 10 0 12
-203904 -1 0;
#X obj 23 157 send \$0-version_cnv;
#X msg 23 132 label \$1;
#X obj 48 103 symbol;
#X obj 38 77 loadbang;
#X msg 96 78 bang;
#X obj 309 163 outlet;
#X obj 23 52 zexy/makesymbol Firmata-%s.%s;
#X obj 23 29 route version bang;
#X connect 0 0 9 0;
#X connect 3 0 2 0;
#X connect 4 0 3 0;
#X connect 5 0 4 0;
#X connect 6 0 4 0;
#X connect 8 0 3 0;
#X connect 9 0 8 0;
#X connect 9 1 7 0;
#X connect 9 1 6 0;
#X connect 9 2 7 0;
#X coords 0 -1 1 1 145 17 1 250 100;
#X restore 326 386 pd ver;
#X obj 50 341 arduino 1;
#N canvas 649 518 411 212 firmware 0;
#X obj 123 2 inlet;
#X obj 250 100 cnv 15 145 17 empty \$0-firmware_cnv empty 4 10 0 12
-232576 -66577 0;
#X msg 123 156 label \$1;
#X obj 148 127 symbol;
#X obj 138 101 loadbang;
#X msg 196 102 bang;
#X obj 123 181 send \$0-firmware_cnv;
#X obj 123 24 route firmware;
#X obj 18 181 print Firmware;
#X obj 123 49 list;
#X obj 123 80 zexy/makesymbol %s-%s.%s;
#X obj 18 151 list trim;
#X obj 204 45 route bang;
#X connect 0 0 7 0;
#X connect 2 0 6 0;
#X connect 3 0 2 0;
#X connect 4 0 3 0;
#X connect 5 0 3 0;
#X connect 7 0 9 0;
#X connect 7 1 12 0;
#X connect 9 0 10 0;
#X connect 10 0 2 0;
#X connect 10 0 11 0;
#X connect 11 0 8 0;
#X connect 12 0 5 0;
#X coords 0 -1 1 1 145 17 1 250 100;
#X restore 326 406 pd firmware;
#X msg 50 241 devices;
#X msg 50 221 firmware;
#N canvas 300 462 450 300 STRING 0;
#X obj 48 13 inlet;
#X obj 51 93 moocow/string2any 32 -1;
#X obj 51 154 print STRING;
#X connect 0 0 1 0;
#X connect 1 0 2 0;
#X restore 325 458 pd STRING;
#N canvas 205 22 593 390 strings 0;
#X obj -178 287 outlet;
#X obj -142 101 moocow/any2string;
#X symbolatom -92 48 10 0 0 0 - - -;
#X obj -119 179 pddp/print;
#X obj -92 68 list trim;
#X msg -175 39 test;
#X msg -139 40 TEST;
#X obj -142 130 cyclone/prepend string;
#X obj -313 102 moocow/any2string;
#X symbolatom -263 49 10 0 0 0 - - -;
#X obj -314 202 pddp/print;
#X obj -263 69 list trim;
#X msg -346 40 test;
#X msg -310 41 TEST;
#X obj -313 153 cyclone/prepend sysex;
#X obj -313 131 cyclone/prepend 40;
#X msg 66 117 samplingInterval \$1;
#X obj 69 93 hsl 128 15 0 127 0 0 empty empty empty -2 -8 0 10 -262144
-1 -1 0 1;
#X floatatom 27 117 5 0 0 0 - - -;
#X connect 1 0 7 0;
#X connect 2 0 4 0;
#X connect 4 0 1 0;
#X connect 5 0 1 0;
#X connect 6 0 1 0;
#X connect 7 0 3 0;
#X connect 7 0 0 0;
#X connect 8 0 15 0;
#X connect 9 0 11 0;
#X connect 11 0 8 0;
#X connect 12 0 8 0;
#X connect 13 0 8 0;
#X connect 14 0 0 0;
#X connect 14 0 10 0;
#X connect 15 0 14 0;
#X connect 16 0 0 0;
#X connect 17 0 16 0;
#X connect 17 0 18 0;
#X restore 112 294 pd strings and special messages;
#N canvas 626 98 404 287 device 0;
#X obj 35 60 inlet;
#X obj 35 118 route open port ports;
#X obj 35 169 tgl 15 0 empty empty open -3 20 0 10 -262144 -1 -1 0
1;
#X floatatom 76 170 5 0 0 3 port - -;
#X obj 117 170 print comport_ports;
#X obj 252 170 outlet;
#X obj 235 74 receive ARDUINO_TEST_RESET;
#X obj 235 97 bang;
#X connect 0 0 1 0;
#X connect 1 0 2 0;
#X connect 1 1 3 0;
#X connect 1 2 4 0;
#X connect 1 3 5 0;
#X connect 6 0 7 0;
#X connect 7 0 5 0;
#X restore 326 364 pd device info;
#N canvas 0 22 450 300 sysex 0;
#X obj 139 19 inlet;
#X obj 127 109 moocow/string2any 32 -1;
#X obj 127 170 print STRING;
#X obj 97 55 list split 1;
#X obj 40 109 print COMMAND;
#X obj 210 54 print sysex;
#X connect 0 0 3 0;
#X connect 0 0 5 0;
#X connect 1 0 2 0;
#X connect 3 0 4 0;
#X connect 3 1 1 0;
#X restore 390 458 pd sysex;
#X text 418 364 <- open to see info;
#N canvas 419 605 446 317 pinMode 0;
#X obj 94 267 outlet;
#X obj 122 100 vradio 10 1 0 6 THIS_HIDES_THE_OUTLET ARDUINO_TEST_RESET
2 2 -8 0 10 -261682 -1 -1 0;
#X obj 132 100 vradio 10 1 0 6 THIS_HIDES_THE_OUTLET ARDUINO_TEST_RESET
3 2 -8 0 10 -261682 -1 -1 0;
#X obj 142 100 vradio 10 1 0 6 THIS_HIDES_THE_OUTLET ARDUINO_TEST_RESET
4 2 -8 0 10 -261682 -1 -1 0;
#X obj 152 100 vradio 10 1 0 6 THIS_HIDES_THE_OUTLET ARDUINO_TEST_RESET
5 2 -8 0 10 -261682 -1 -1 0;
#X obj 162 100 vradio 10 1 0 6 THIS_HIDES_THE_OUTLET ARDUINO_TEST_RESET
6 2 -8 0 10 -261682 -1 -1 0;
#X obj 172 100 vradio 10 1 0 6 THIS_HIDES_THE_OUTLET ARDUINO_TEST_RESET
7 2 -8 0 10 -261682 -1 -1 0;
#X obj 182 100 vradio 10 1 0 6 THIS_HIDES_THE_OUTLET ARDUINO_TEST_RESET
8 2 -8 0 10 -261682 -1 -1 0;
#X obj 192 100 vradio 10 1 0 6 THIS_HIDES_THE_OUTLET ARDUINO_TEST_RESET
9 2 -8 0 10 -261682 -1 -1 0;
#X obj 202 100 vradio 10 1 0 6 THIS_HIDES_THE_OUTLET ARDUINO_TEST_RESET
10 0 -8 0 8 -261682 -1 -1 0;
#X obj 212 100 vradio 10 1 0 6 THIS_HIDES_THE_OUTLET ARDUINO_TEST_RESET
11 0 -8 0 8 -261682 -1 -1 0;
#X obj 222 100 vradio 10 1 0 6 THIS_HIDES_THE_OUTLET ARDUINO_TEST_RESET
12 0 -8 0 8 -261682 -1 -1 0;
#X obj 232 100 vradio 10 1 0 6 THIS_HIDES_THE_OUTLET ARDUINO_TEST_RESET
13 0 -8 0 8 -261682 -1 -1 0;
#X obj 242 100 vradio 10 1 0 6 THIS_HIDES_THE_OUTLET ARDUINO_TEST_RESET
14 0 -8 0 8 -261682 -1 -1 0;
#X obj 252 100 vradio 10 1 0 6 THIS_HIDES_THE_OUTLET ARDUINO_TEST_RESET
15 0 -8 0 8 -261682 -1 -1 0;
#X obj 262 100 vradio 10 1 0 6 THIS_HIDES_THE_OUTLET ARDUINO_TEST_RESET
16 0 -8 0 8 -261682 -1 -1 0;
#X obj 272 100 vradio 10 1 0 6 THIS_HIDES_THE_OUTLET ARDUINO_TEST_RESET
17 0 -8 0 8 -261682 -1 -1 0;
#X obj 282 100 vradio 10 1 0 6 THIS_HIDES_THE_OUTLET ARDUINO_TEST_RESET
18 0 -8 0 8 -261682 -1 -1 0;
#X obj 292 100 vradio 10 1 0 6 THIS_HIDES_THE_OUTLET ARDUINO_TEST_RESET
19 0 -8 0 8 -261682 -1 -1 0;
#X obj 302 100 vradio 10 1 0 6 THIS_HIDES_THE_OUTLET ARDUINO_TEST_RESET
20 0 -8 0 8 -261682 -1 -1 0;
#X obj 312 100 vradio 10 1 0 6 THIS_HIDES_THE_OUTLET ARDUINO_TEST_RESET
21 0 -8 0 8 -261682 -1 -1 0;
#N canvas 72 484 1069 446 send-to-arduino---------------------- 0;
#X obj 49 14 inlet;
#X obj 89 14 inlet;
#X obj 128 14 inlet;
#X obj 168 14 inlet;
#X obj 208 14 inlet;
#X obj 248 14 inlet;
#X obj 287 14 inlet;
#X obj 327 14 inlet;
#X obj 368 13 inlet;
#X obj 408 13 inlet;
#X obj 447 13 inlet;
#X obj 487 13 inlet;
#X obj 527 13 inlet;
#X msg 49 56 pinMode 0 \$1;
#X msg 89 78 pinMode 1 \$1;
#X msg 128 100 pinMode 2 \$1;
#X msg 168 120 pinMode 3 \$1;
#X msg 208 52 pinMode 4 \$1;
#X msg 248 74 pinMode 5 \$1;
#X msg 287 96 pinMode 6 \$1;
#X msg 327 116 pinMode 7 \$1;
#X msg 368 48 pinMode 8 \$1;
#X msg 408 70 pinMode 9 \$1;
#X msg 447 92 pinMode 10 \$1;
#X msg 487 112 pinMode 11 \$1;
#X msg 527 40 pinMode 12 \$1;
#X obj 566 13 inlet;
#X msg 566 60 pinMode 13 \$1;
#X obj 607 13 inlet;
#X obj 647 13 inlet;
#X obj 687 13 inlet;
#X obj 726 13 inlet;
#X obj 767 13 inlet;
#X obj 807 13 inlet;
#X obj 847 13 inlet;
#X obj 886 13 inlet;
#X msg 607 92 pinMode 14 \$1;
#X msg 647 112 pinMode 15 \$1;
#X msg 687 40 pinMode 16 \$1;
#X msg 726 60 pinMode 17 \$1;
#X msg 767 92 pinMode 18 \$1;
#X msg 807 112 pinMode 19 \$1;
#X msg 847 40 pinMode 20 \$1;
#X msg 886 60 pinMode 21 \$1;
#X obj 927 13 inlet;
#X obj 967 13 inlet;
#X msg 927 92 pinMode 22 \$1;
#X msg 967 112 pinMode 23 \$1;
#X obj 521 427 outlet;
#X obj 481 403 trigger bang anything;
#X obj 481 358 list prepend set;
#X obj 481 380 list trim;
#X obj 481 199 list;
#X obj 481 221 unpack symbol float float;
#X obj 481 331 pack symbol float symbol;
#X obj 622 311 symbol;
#X msg 659 284 analog;
#X msg 707 284 pwm;
#X msg 737 284 servo;
#X obj 739 364 list trim;
#X obj 739 341 list prepend WARNING Unsupported pin mode:;
#X obj 739 386 print [arduino];
#X msg 568 284 input;
#X msg 609 284 output;
#X obj 628 240 - 1;
#X obj 628 259 select 0 1 2 3 4 -1;
#X text 757 258 (-1 == NONE);
#X connect 0 0 13 0;
#X connect 1 0 14 0;
#X connect 2 0 15 0;
#X connect 3 0 16 0;
#X connect 4 0 17 0;
#X connect 5 0 18 0;
#X connect 6 0 19 0;
#X connect 7 0 20 0;
#X connect 8 0 21 0;
#X connect 9 0 22 0;
#X connect 10 0 23 0;
#X connect 11 0 24 0;
#X connect 12 0 25 0;
#X connect 13 0 52 0;
#X connect 14 0 52 0;
#X connect 15 0 52 0;
#X connect 16 0 52 0;
#X connect 17 0 52 0;
#X connect 18 0 52 0;
#X connect 19 0 52 0;
#X connect 20 0 52 0;
#X connect 21 0 52 0;
#X connect 22 0 52 0;
#X connect 23 0 52 0;
#X connect 24 0 52 0;
#X connect 25 0 52 0;
#X connect 26 0 27 0;
#X connect 27 0 52 0;
#X connect 28 0 36 0;
#X connect 29 0 37 0;
#X connect 30 0 38 0;
#X connect 31 0 39 0;
#X connect 32 0 40 0;
#X connect 33 0 41 0;
#X connect 34 0 42 0;
#X connect 35 0 43 0;
#X connect 36 0 52 0;
#X connect 37 0 52 0;
#X connect 38 0 52 0;
#X connect 39 0 52 0;
#X connect 40 0 52 0;
#X connect 41 0 52 0;
#X connect 42 0 52 0;
#X connect 43 0 52 0;
#X connect 44 0 46 0;
#X connect 45 0 47 0;
#X connect 46 0 52 0;
#X connect 47 0 52 0;
#X connect 49 0 48 0;
#X connect 49 1 48 0;
#X connect 50 0 51 0;
#X connect 51 0 49 0;
#X connect 52 0 53 0;
#X connect 53 0 54 0;
#X connect 53 1 54 1;
#X connect 53 2 64 0;
#X connect 54 0 50 0;
#X connect 55 0 54 2;
#X connect 56 0 55 0;
#X connect 57 0 55 0;
#X connect 58 0 55 0;
#X connect 59 0 61 0;
#X connect 60 0 59 0;
#X connect 62 0 55 0;
#X connect 63 0 55 0;
#X connect 64 0 65 0;
#X connect 65 0 62 0;
#X connect 65 1 63 0;
#X connect 65 2 56 0;
#X connect 65 3 57 0;
#X connect 65 4 58 0;
#X connect 65 6 60 0;
#X restore 94 189 pd send-to-arduino----------------------;
#X obj 322 100 vradio 10 1 0 6 THIS_HIDES_THE_OUTLET ARDUINO_TEST_RESET
22 0 -8 0 8 -261682 -1 -1 0;
#X obj 332 100 vradio 10 1 0 6 THIS_HIDES_THE_OUTLET ARDUINO_TEST_RESET
23 0 -8 0 8 -261682 -1 -1 0;
#X obj 100 100 cnv 10 10 60 empty empty Rx 0 23 0 8 -191407 -86277
0;
#X obj 111 100 cnv 10 10 60 empty empty Tx 0 23 0 8 -191407 -13381
0;
#X connect 1 0 21 2;
#X connect 2 0 21 3;
#X connect 3 0 21 4;
#X connect 4 0 21 5;
#X connect 5 0 21 6;
#X connect 6 0 21 7;
#X connect 7 0 21 8;
#X connect 8 0 21 9;
#X connect 9 0 21 10;
#X connect 10 0 21 11;
#X connect 11 0 21 12;
#X connect 12 0 21 13;
#X connect 13 0 21 14;
#X connect 14 0 21 15;
#X connect 15 0 21 16;
#X connect 16 0 21 17;
#X connect 17 0 21 18;
#X connect 18 0 21 19;
#X connect 19 0 21 20;
#X connect 20 0 21 21;
#X connect 21 0 0 0;
#X connect 22 0 21 22;
#X connect 23 0 21 23;
#X coords 0 -1 1 1 242 60 2 100 100;
#X restore 168 99 pd pinMode;
#X text 415 144 servo;
#X text 415 134 pwm;
#X text 415 106 input;
#X text 415 115 output;
#X text 415 125 analog;
#N canvas 72 104 423 503 analog 0;
#X obj 38 10 inlet;
#X obj 131 10 inlet;
#X obj 38 259 pack float float;
#X obj 192 113 route float symbol;
#X obj 188 259 pack float symbol;
#X text 78 11 pin#;
#X text 179 10 PWM value or "off";
#X obj 39 217 cyclone/gate 2;
#X msg 191 153 1;
#X msg 252 153 2;
#X obj 131 34 list;
#X obj 131 113 float;
#X obj 131 67 trigger bang anything;
#X obj 37 427 outlet;
#X obj 37 356 trigger bang anything;
#X obj 179 376 list;
#X msg 179 396 set \$1 \$2 \$3;
#X msg 37 308 analog \$1 \$2;
#X connect 0 0 11 0;
#X connect 1 0 10 0;
#X connect 2 0 17 0;
#X connect 3 0 8 0;
#X connect 3 0 2 1;
#X connect 3 1 9 0;
#X connect 3 1 4 1;
#X connect 4 0 17 0;
#X connect 7 0 2 0;
#X connect 7 1 4 0;
#X connect 8 0 7 0;
#X connect 9 0 7 0;
#X connect 10 0 12 0;
#X connect 11 0 7 1;
#X connect 12 0 11 0;
#X connect 12 1 3 0;
#X connect 14 0 13 0;
#X connect 14 1 15 0;
#X connect 15 0 16 0;
#X connect 16 0 13 0;
#X connect 17 0 14 0;
#X restore 342 245 pd analog;
#X obj 323 524 tgl 15 0 empty ARDUINO_TEST_RESET 0 4 23 1 12 -232448
-1 -1 0 1;
#X obj 340 524 tgl 15 0 empty ARDUINO_TEST_RESET 1 4 23 1 12 -232448
-1 -1 0 1;
#N canvas 959 22 960 804 old 0;
#X msg 95 138 digitalIns 0 0;
#X msg 88 77 analogIns 0 0;
#N canvas 162 133 610 460 serin 0;
#X obj 59 337 outlet;
#X obj 59 266 trigger bang anything;
#X obj 201 286 list;
#X obj 60 61 tgl 15 0 junk_to_hide_inlet ARDUINO_TEST_RESET 0 5 9 1
12 -262130 -1 -1 0 1;
#X obj 75 61 tgl 15 0 junk_to_hide_inlet ARDUINO_TEST_RESET 1 5 9 1
12 -262130 -1 -1 0 1;
#X obj 90 61 tgl 15 0 junk_to_hide_inlet ARDUINO_TEST_RESET 2 5 9 1
12 -262130 -1 -1 0 1;
#X obj 105 61 tgl 15 0 junk_to_hide_inlet ARDUINO_TEST_RESET 3 5 9
1 12 -262130 -1 -1 0 1;
#X obj 120 61 tgl 15 0 junk_to_hide_inlet ARDUINO_TEST_RESET 4 5 9
1 12 -262130 -1 -1 0 1;
#X obj 135 61 tgl 15 0 junk_to_hide_inlet ARDUINO_TEST_RESET 5 5 9
1 12 -262130 -1 -1 0 1;
#X obj 150 61 tgl 15 0 junk_to_hide_inlet ARDUINO_TEST_RESET 6 5 9
1 12 -262130 -1 -1 0 1;
#X obj 165 61 tgl 15 0 junk_to_hide_inlet ARDUINO_TEST_RESET 7 5 9
1 12 -262130 -1 -1 0 1;
#X msg 59 210 analogIns \$1 \$2;
#X msg 35 106 0 \$1;
#X msg 70 106 1 \$1;
#X msg 105 106 2 \$1;
#X msg 140 106 3 \$1;
#X msg 175 106 4 \$1;
#X msg 210 106 5 \$1;
#X msg 245 106 6 \$1;
#X msg 280 106 7 \$1;
#X msg 202 307 set \$1 \$2 \$3;
#X connect 1 0 0 0;
#X connect 1 1 2 0;
#X connect 2 0 20 0;
#X connect 3 0 12 0;
#X connect 4 0 13 0;
#X connect 5 0 14 0;
#X connect 6 0 15 0;
#X connect 7 0 16 0;
#X connect 8 0 17 0;
#X connect 9 0 18 0;
#X connect 10 0 19 0;
#X connect 11 0 1 0;
#X connect 12 0 11 0;
#X connect 13 0 11 0;
#X connect 14 0 11 0;
#X connect 15 0 11 0;
#X connect 16 0 11 0;
#X connect 17 0 11 0;
#X connect 18 0 11 0;
#X connect 19 0 11 0;
#X connect 20 0 0 0;
#X coords 0 -1 1 1 120 16 1 60 60;
#X restore 88 55 pd serin;
#X text 87 38 which analogIns to enable:;
#X text 94 101 which digital ports to enable:;
#N canvas 162 133 610 460 seri 0;
#X obj 59 337 outlet;
#X obj 59 266 trigger bang anything;
#X obj 201 286 list;
#X obj 60 61 tgl 15 0 junk_to_hide_inlet ARDUINO_TEST_RESET 0 5 9 1
12 -260736 -1 -1 0 1;
#X obj 75 61 tgl 15 0 junk_to_hide_inlet ARDUINO_TEST_RESET 1 5 9 1
12 -260736 -1 -1 0 1;
#X obj 90 61 tgl 15 0 junk_to_hide_inlet ARDUINO_TEST_RESET 2 5 9 1
12 -260736 -1 -1 0 1;
#X msg 35 106 0 \$1;
#X msg 70 106 1 \$1;
#X msg 105 106 2 \$1;
#X msg 202 307 set \$1 \$2 \$3;
#X msg 59 210 digitalIns \$1 \$2;
#X connect 1 0 0 0;
#X connect 1 1 2 0;
#X connect 2 0 9 0;
#X connect 3 0 6 0;
#X connect 4 0 7 0;
#X connect 5 0 8 0;
#X connect 6 0 10 0;
#X connect 7 0 10 0;
#X connect 8 0 10 0;
#X connect 9 0 0 0;
#X connect 10 0 1 0;
#X coords 0 -1 1 1 45 16 1 60 60;
#X restore 95 118 pd seri;
#X obj 42 179 outlet;
#X connect 0 0 6 0;
#X connect 1 0 6 0;
#X connect 2 0 1 0;
#X connect 5 0 0 0;
#X restore 112 271 pd old analog/digital controls;
#X text 114 199 <-- get protocol version;
#X text 114 219 <-- get firmware name and version;
#X text 114 180 <-- get connection info;
#X text 110 340 <-- argument sets port #;
#X text -123 50 The [arduino] object works with the Firmata firmware.
;
#X text 18 80 configure mode for each pin:;
#X text 114 239 <-- list available serial devices;
#X text 358 297 <-- pulse all outputs;
#X text 415 95 NONE;
#X obj 50 373 route analog digital string sysex;
#X msg -43 141 open 2;
#X text 347 204 switch pin to 'pwm' or 'servo' first;
#X msg 342 267 analog 3 0;
#X msg 168 163 pinMode 5 pwm;
#X text 568 522 <--- digital inputs show up here;
#X obj -78 249 inlet;
#X obj 50 402 outlet;
#X obj -78 222 r openPort;
#X obj -78 195 r closePort;
#X obj -78 303 r ledOn;
#X obj -78 330 bng 15 250 50 0 empty empty empty 17 7 0 10 -262144
-1 -1;
#X msg -78 355 pinMode 3 pwm;
#X msg -78 382 pinMode 5 pwm;
#N canvas 319 22 638 756 ledOut 0;
#X obj 66 181 r led1;
#X obj 266 181 r led2;
#X msg 326 241 analog 5 \$1;
#X obj 66 208 moses 0.3;
#X obj 266 208 moses 0.3;
#X obj 66 404 outlet;
#X obj 267 404 outlet;
#X msg 36 241 analog 3 0;
#X msg 228 241 analog 5 0;
#X msg 136 241 analog 3 \$1;
#X connect 0 0 3 0;
#X connect 1 0 4 0;
#X connect 2 0 6 0;
#X connect 3 0 7 0;
#X connect 3 1 9 0;
#X connect 4 0 8 0;
#X connect 4 1 2 0;
#X connect 7 0 5 0;
#X connect 8 0 6 0;
#X connect 9 0 5 0;
#X restore -78 276 pd ledOut;
#X connect 3 0 69 0;
#X connect 3 1 5 0;
#X connect 6 0 55 1;
#X connect 7 0 55 0;
#X connect 22 0 40 0;
#X connect 23 0 40 0;
#X connect 24 0 40 0;
#X connect 25 0 24 0;
#X connect 26 0 56 0;
#X connect 26 1 57 0;
#X connect 26 2 27 0;
#X connect 26 3 28 0;
#X connect 26 4 29 0;
#X connect 26 5 30 0;
#X connect 26 6 31 0;
#X connect 26 7 32 0;
#X connect 26 8 33 0;
#X connect 26 9 34 0;
#X connect 26 10 35 0;
#X connect 26 11 36 0;
#X connect 26 12 37 0;
#X connect 26 13 38 0;
#X connect 39 0 41 0;
#X connect 40 0 68 0;
#X connect 40 1 46 0;
#X connect 42 0 40 0;
#X connect 43 0 40 0;
#X connect 45 0 40 0;
#X connect 46 0 39 0;
#X connect 49 0 72 0;
#X connect 55 0 71 0;
#X connect 58 0 40 0;
#X connect 68 0 75 0;
#X connect 68 1 26 0;
#X connect 68 2 44 0;
#X connect 68 3 47 0;
#X connect 71 0 40 0;
#X connect 72 0 40 0;
#X connect 74 0 40 0;
#X connect 76 0 40 0;
#X connect 77 0 40 0;
#X connect 78 0 79 0;
#X connect 79 0 80 0;
#X connect 79 0 81 0;
#X connect 80 0 40 0;
#X connect 81 0 40 0;
#X connect 82 0 40 0;
#X connect 82 1 40 0;
#X restore 174 104 pd arduino_config;
#N canvas 394 99 450 300 loadPins 0;
#X msg 146 98 analogIns 0 1;
#X msg 146 128 analogIns 1 1;
#X msg 147 162 analogIns 2 1;
#X msg 148 189 analogIns 3 1;
#X obj 66 57 inlet;
#X obj 68 227 outlet;
#X connect 0 0 5 0;
#X connect 1 0 5 0;
#X connect 2 0 5 0;
#X connect 3 0 5 0;
#X connect 4 0 0 0;
#X connect 4 0 1 0;
#X connect 4 0 2 0;
#X connect 4 0 3 0;
#X restore 174 73 pd loadPins;
#N canvas 800 22 800 704 sample1 0;
#X obj 120 370 phasor~;
#X obj 120 418 *~;
#X obj 123 530 *~;
#X obj 148 530 *~;
#X obj 124 563 dac~ 1 2;
#X obj 196 490 env~;
#X obj 196 514 - 100;
#X obj 196 540 s vu1;
#X obj 196 563 r vol1;
#X obj 115 188 openpanel;
#X obj 115 240 soundfiler;
#X floatatom 136 266 12 0 0 0 - - -;
#X obj 116 319 expr 44100 / $f1;
#X floatatom 139 349 12 0 0 0 - - -;
#X obj 114 165 r sample1;
#X obj 228 321 bng 15 250 50 0 empty empty empty 17 7 0 10 -262144
-1 -1;
#X msg 228 348 0;
#X msg 115 214 read -resize \$1 left1 right1;
#X obj 136 291 s sampleSize1;
#X obj 135 393 r sampleSize1;
#X obj 121 442 tabread4~ left1;
#X obj 147 463 tabread4~ right1;
#X obj 183 370 s sampleTime1;
#X connect 0 0 1 0;
#X connect 1 0 20 0;
#X connect 1 0 21 0;
#X connect 2 0 4 0;
#X connect 3 0 4 1;
#X connect 5 0 6 0;
#X connect 6 0 7 0;
#X connect 8 0 2 1;
#X connect 9 0 17 0;
#X connect 10 0 11 0;
#X connect 10 0 12 0;
#X connect 11 0 18 0;
#X connect 12 0 13 0;
#X connect 13 0 0 0;
#X connect 13 0 22 0;
#X connect 14 0 9 0;
#X connect 15 0 13 0;
#X connect 15 0 16 0;
#X connect 16 0 0 1;
#X connect 17 0 10 0;
#X connect 19 0 1 1;
#X connect 20 0 2 0;
#X connect 20 0 5 0;
#X connect 21 0 3 0;
#X restore 75 320 pd sample1;
#N canvas 4 22 1276 756 sample2 0;
#X obj 179 390 phasor~;
#X obj 179 438 *~;
#X obj 182 550 *~;
#X obj 207 550 *~;
#X obj 183 583 dac~ 1 2;
#X obj 255 510 env~;
#X obj 255 534 - 100;
#X obj 174 208 openpanel;
#X obj 174 260 soundfiler;
#X floatatom 195 286 12 0 0 0 - - -;
#X obj 175 339 expr 44100 / $f1;
#X floatatom 198 369 12 0 0 0 - - -;
#X obj 287 341 bng 15 250 50 0 empty empty empty 17 7 0 10 -262144
-1 -1;
#X msg 287 368 0;
#X obj 173 185 r sample2;
#X msg 174 234 read -resize \$1 left2 right2;
#X obj 195 311 s sampleSize2;
#X obj 194 413 r sampleSize2;
#X obj 180 462 tabread4~ left2;
#X obj 206 483 tabread4~ right2;
#X obj 255 560 s vu2;
#X obj 255 583 r vol2;
#X connect 0 0 1 0;
#X connect 1 0 18 0;
#X connect 1 0 19 0;
#X connect 2 0 4 0;
#X connect 3 0 4 1;
#X connect 5 0 6 0;
#X connect 6 0 20 0;
#X connect 7 0 15 0;
#X connect 8 0 9 0;
#X connect 8 0 10 0;
#X connect 9 0 16 0;
#X connect 10 0 11 0;
#X connect 11 0 0 0;
#X connect 12 0 11 0;
#X connect 12 0 13 0;
#X connect 13 0 0 1;
#X connect 14 0 7 0;
#X connect 15 0 8 0;
#X connect 17 0 1 1;
#X connect 18 0 2 0;
#X connect 18 0 5 0;
#X connect 19 0 3 0;
#X connect 21 0 2 1;
#X restore 146 320 pd sample2;
#N canvas 0 22 1276 704 sample3 0;
#X obj 177 390 phasor~;
#X obj 177 438 *~;
#X obj 180 550 *~;
#X obj 205 550 *~;
#X obj 181 583 dac~ 1 2;
#X obj 253 510 env~;
#X obj 253 534 - 100;
#X obj 172 208 openpanel;
#X obj 172 260 soundfiler;
#X floatatom 193 286 12 0 0 0 - - -;
#X obj 173 339 expr 44100 / $f1;
#X floatatom 196 369 12 0 0 0 - - -;
#X obj 285 341 bng 15 250 50 0 empty empty empty 17 7 0 10 -262144
-1 -1;
#X msg 285 368 0;
#X obj 171 185 r sample3;
#X msg 172 234 read -resize \$1 left3 right3;
#X obj 193 311 s sampleSize3;
#X obj 192 413 r sampleSize3;
#X obj 178 462 tabread4~ left3;
#X obj 204 483 tabread4~ right3;
#X obj 253 560 s vu3;
#X obj 253 583 r vol3;
#X connect 0 0 1 0;
#X connect 1 0 18 0;
#X connect 1 0 19 0;
#X connect 2 0 4 0;
#X connect 3 0 4 1;
#X connect 5 0 6 0;
#X connect 6 0 20 0;
#X connect 7 0 15 0;
#X connect 8 0 9 0;
#X connect 8 0 10 0;
#X connect 9 0 16 0;
#X connect 10 0 11 0;
#X connect 11 0 0 0;
#X connect 12 0 11 0;
#X connect 12 0 13 0;
#X connect 13 0 0 1;
#X connect 14 0 7 0;
#X connect 15 0 8 0;
#X connect 17 0 1 1;
#X connect 18 0 2 0;
#X connect 18 0 5 0;
#X connect 19 0 3 0;
#X connect 21 0 2 1;
#X restore 215 320 pd sample3;
#N canvas 0 22 1276 704 sample4 0;
#X obj 186 380 phasor~;
#X obj 186 428 *~;
#X obj 189 540 *~;
#X obj 214 540 *~;
#X obj 190 573 dac~ 1 2;
#X obj 262 500 env~;
#X obj 262 524 - 100;
#X obj 181 198 openpanel;
#X obj 181 250 soundfiler;
#X floatatom 202 276 12 0 0 0 - - -;
#X obj 182 329 expr 44100 / $f1;
#X floatatom 205 359 12 0 0 0 - - -;
#X obj 294 331 bng 15 250 50 0 empty empty empty 17 7 0 10 -262144
-1 -1;
#X msg 294 358 0;
#X obj 180 175 r sample4;
#X msg 181 224 read -resize \$1 left4 right4;
#X obj 202 301 s sampleSize4;
#X obj 201 403 r sampleSize4;
#X obj 187 452 tabread4~ left4;
#X obj 213 473 tabread4~ right4;
#X obj 262 550 s vu4;
#X obj 262 573 r vol4;
#X connect 0 0 1 0;
#X connect 1 0 18 0;
#X connect 1 0 19 0;
#X connect 2 0 4 0;
#X connect 3 0 4 1;
#X connect 5 0 6 0;
#X connect 6 0 20 0;
#X connect 7 0 15 0;
#X connect 8 0 9 0;
#X connect 8 0 10 0;
#X connect 9 0 16 0;
#X connect 10 0 11 0;
#X connect 11 0 0 0;
#X connect 12 0 11 0;
#X connect 12 0 13 0;
#X connect 13 0 0 1;
#X connect 14 0 7 0;
#X connect 15 0 8 0;
#X connect 17 0 1 1;
#X connect 18 0 2 0;
#X connect 18 0 5 0;
#X connect 19 0 3 0;
#X connect 21 0 2 1;
#X restore 285 320 pd sample4;
#X obj 174 42 inlet;
#X obj 88 235 s sv1;
#X obj 153 236 s sv2;
#X obj 215 236 s sv3;
#X obj 284 235 s sv4;
#X obj 495 501 s loadVol1;
#X obj 565 341 s loadVol2;
#X obj 635 341 s loadVol3;
#X obj 705 342 s loadVol4;
#N canvas 981 48 499 396 display 0;
#X obj 6 7 inlet;
#X obj 6 28 mapping/resample 100;
#X obj 6 50 outlet;
#X obj 54 50 inlet;
#X obj 54 71 mapping/resample 100;
#X obj 54 93 outlet;
#X obj 103 93 inlet;
#X obj 103 114 mapping/resample 100;
#X obj 103 136 outlet;
#X obj 151 136 inlet;
#X obj 151 157 mapping/resample 100;
#X obj 151 179 outlet;
#X obj 200 179 inlet;
#X obj 200 200 mapping/resample 100;
#X obj 200 222 outlet;
#X obj 247 222 inlet;
#X obj 247 243 mapping/resample 100;
#X obj 247 265 outlet;
#X obj 295 265 inlet;
#X obj 295 286 mapping/resample 100;
#X obj 295 308 outlet;
#X obj 345 308 inlet;
#X obj 345 329 mapping/resample 100;
#X obj 345 351 outlet;
#X obj 60 290 receive ARDUINO_TEST_RESET;
#X connect 0 0 1 0;
#X connect 1 0 2 0;
#X connect 3 0 4 0;
#X connect 4 0 5 0;
#X connect 6 0 7 0;
#X connect 7 0 8 0;
#X connect 9 0 10 0;
#X connect 10 0 11 0;
#X connect 12 0 13 0;
#X connect 13 0 14 0;
#X connect 15 0 16 0;
#X connect 16 0 17 0;
#X connect 18 0 19 0;
#X connect 19 0 20 0;
#X connect 21 0 22 0;
#X connect 22 0 23 0;
#X connect 24 0 22 0;
#X connect 24 0 19 0;
#X connect 24 0 16 0;
#X connect 24 0 13 0;
#X connect 24 0 10 0;
#X connect 24 0 7 0;
#X connect 24 0 4 0;
#X connect 24 0 1 0;
#X restore 98 167 pd display values without pegging the CPU;
#X obj 21 225 s led1;
#X obj 21 243 s led2;
#X floatatom 495 475 5 0 0 0 - - -;
#X floatatom 565 316 5 0 0 0 - - -;
#X floatatom 635 316 5 0 0 0 - - -;
#X floatatom 705 316 5 0 0 0 - - -;
#X obj 495 209 moses 0.25;
#X obj 565 209 moses 0.25;
#X obj 635 209 moses 0.25;
#X obj 705 209 moses 0.25;
#X obj 495 450 change;
#X obj 565 290 change;
#X obj 565 266 bng 15 250 50 0 empty empty empty 17 7 0 10 -262144
-1 -1;
#X obj 635 290 change;
#X obj 635 266 bng 15 250 50 0 empty empty empty 17 7 0 10 -262144
-1 -1;
#X obj 705 290 change;
#X obj 705 266 bng 15 250 50 0 empty empty empty 17 7 0 10 -262144
-1 -1;
#N canvas 644 94 592 673 sample5 0;
#X obj 66 220 phasor~;
#X obj 66 268 *~;
#X obj 69 380 *~;
#X obj 94 380 *~;
#X obj 70 413 dac~ 1 2;
#X obj 142 340 env~;
#X obj 142 364 - 100;
#X obj 61 38 openpanel;
#X obj 61 90 soundfiler;
#X floatatom 82 116 12 0 0 0 - - -;
#X obj 62 169 expr 44100 / $f1;
#X floatatom 85 199 12 0 0 0 - - -;
#X obj 174 171 bng 15 250 50 0 empty empty empty 17 7 0 10 -262144
-1 -1;
#X msg 174 198 0;
#X msg 61 64 read -resize \$1 left5 right5;
#X obj 60 15 r sample5;
#X obj 82 141 s sampleSize5;
#X obj 81 243 r sampleSize5;
#X obj 142 390 s vu5;
#X obj 142 413 r vol5;
#X obj 67 292 tabread4~ left5;
#X obj 93 313 tabread4~ right5;
#X connect 0 0 1 0;
#X connect 1 0 20 0;
#X connect 1 0 21 0;
#X connect 2 0 4 0;
#X connect 3 0 4 1;
#X connect 5 0 6 0;
#X connect 6 0 18 0;
#X connect 7 0 14 0;
#X connect 8 0 9 0;
#X connect 8 0 10 0;
#X connect 9 0 16 0;
#X connect 10 0 11 0;
#X connect 11 0 0 0;
#X connect 12 0 11 0;
#X connect 12 0 13 0;
#X connect 13 0 0 1;
#X connect 14 0 8 0;
#X connect 15 0 7 0;
#X connect 17 0 1 1;
#X connect 19 0 2 1;
#X connect 20 0 2 0;
#X connect 20 0 5 0;
#X connect 21 0 3 0;
#X restore 356 320 pd sample5;
#X floatatom 775 316 5 0 0 0 - - -;
#X obj 775 267 loadbang;
#X msg 775 290 0.7;
#X obj 775 342 s loadVol5;
#X floatatom 513 236 5 0 0 0 - - -;
#X obj 495 422 - 0.1;
#X obj 494 355 metro 10;
#X obj 494 321 tgl 15 0 empty empty empty 17 7 0 10 -262144 -1 -1 0
1;
#X obj 493 265 bng 15 250 50 0 empty empty empty 17 7 0 10 -262144
-1 -1;
#X obj 493 287 change;
#X connect 0 0 10 0;
#X connect 0 0 25 0;
#X connect 0 0 34 0;
#X connect 0 0 35 0;
#X connect 0 0 40 0;
#X connect 1 0 11 0;
#X connect 1 0 26 0;
#X connect 1 0 34 0;
#X connect 1 0 35 0;
#X connect 1 0 41 0;
#X connect 2 0 12 0;
#X connect 2 0 27 0;
#X connect 2 0 34 0;
#X connect 2 0 35 0;
#X connect 2 0 42 0;
#X connect 3 0 13 0;
#X connect 3 0 28 0;
#X connect 3 0 34 0;
#X connect 3 0 35 0;
#X connect 3 0 43 0;
#X connect 8 0 33 0;
#X connect 8 1 33 1;
#X connect 8 2 33 2;
#X connect 8 3 33 3;
#X connect 8 4 33 4;
#X connect 8 5 33 5;
#X connect 8 6 33 6;
#X connect 8 7 33 7;
#X connect 10 0 14 0;
#X connect 11 0 15 0;
#X connect 12 0 16 0;
#X connect 13 0 17 0;
#X connect 18 0 8 0;
#X connect 19 0 18 0;
#X connect 24 0 19 0;
#X connect 33 0 0 0;
#X connect 33 1 1 0;
#X connect 33 2 2 0;
#X connect 33 3 3 0;
#X connect 33 4 4 0;
#X connect 33 5 5 0;
#X connect 33 6 6 0;
#X connect 33 7 7 0;
#X connect 36 0 29 0;
#X connect 37 0 30 0;
#X connect 38 0 31 0;
#X connect 39 0 32 0;
#X connect 40 0 60 0;
#X connect 40 1 29 0;
#X connect 40 1 56 0;
#X connect 41 0 46 0;
#X connect 41 1 30 0;
#X connect 42 0 48 0;
#X connect 42 1 31 0;
#X connect 43 0 50 0;
#X connect 43 1 32 0;
#X connect 44 0 36 0;
#X connect 45 0 37 0;
#X connect 46 0 45 0;
#X connect 47 0 38 0;
#X connect 48 0 47 0;
#X connect 49 0 39 0;
#X connect 50 0 49 0;
#X connect 52 0 55 0;
#X connect 53 0 54 0;
#X connect 54 0 52 0;
#X connect 57 0 44 0;
#X connect 58 0 57 0;
#X connect 59 0 58 0;
#X connect 60 0 61 0;
#X connect 61 0 59 0;
#X restore 143 339 pd main;
#X text 330 361 SENSOR 1;
#X text 500 361 SENSOR 2;
#X text 671 361 SENSOR 3;
#X text 840 361 SENSOR 4;
#X obj 143 307 bng 15 250 50 0 empty empty empty 17 7 0 10 -262144
-1 -1;
#N canvas 0 22 450 278 (subpatch) 0;
#X coords 0 1 100 -1 170 450 1 0 0;
#X restore 270 100 graph;
#N canvas 0 22 450 278 (subpatch) 0;
#X coords 0 1 100 -1 170 450 1 0 0;
#X restore 440 100 graph;
#N canvas 0 22 450 278 (subpatch) 0;
#X coords 0 1 100 -1 170 450 1 0 0;
#X restore 610 100 graph;
#N canvas 0 22 450 278 (subpatch) 0;
#X coords 0 1 100 -1 170 450 1 0 0;
#X restore 780 100 graph;
#X text 334 102 TRACK 1;
#X text 504 102 TRACK 2;
#X text 674 102 TRACK 3;
#X text 844 102 TRACK 4;
#X text 640 149 <-- LOAD SAMPLE 3;
#X obj 118 457 cnv 15 60 22 empty empty empty 20 12 0 14 -253938 -66577
0;
#N canvas 146 163 525 433 serin 0;
#X obj 180 61 cnv 15 15 15 empty \$0-number-canvas 2 4 8 0 14 -233017
-1 0;
#X obj 200 225 s \$0-number-canvas;
#X obj 60 61 hradio 15 1 1 8 empty empty empty 0 -6 0 8 -225271 -1
-1 2;
#X obj 60 13 inlet;
#X msg 200 202 label \$1;
#X obj 200 180 makefilename %d;
#X obj 59 108 int;
#X msg 59 206 open \$1;
#X obj 59 377 outlet;
#X msg 201 306 set \$1 \$2;
#X obj 59 266 trigger bang anything;
#X obj 201 286 list;
#X obj 383 383 outlet;
#X obj 384 22 netreceive 34567;
#X obj 477 43 tgl 15 0 empty empty empty 0 -6 0 10 -262144 -1 -1 0
1;
#X obj 384 41 bng 15 250 50 0 empty empty empty 0 -6 0 10 -262144 -1
-1;
#X obj 187 24 delay 15000;
#X text 345 379 close;
#X text 209 4 for open/close automation in Makefile;
#X obj 184 95 bang;
#X obj 184 137 send ARDUINO_TEST_RESET;
#X msg 184 116 set 0;
#X connect 2 0 6 0;
#X connect 2 0 19 0;
#X connect 3 0 2 0;
#X connect 4 0 1 0;
#X connect 5 0 4 0;
#X connect 6 0 5 0;
#X connect 6 0 7 0;
#X connect 7 0 10 0;
#X connect 9 0 8 0;
#X connect 10 0 8 0;
#X connect 10 1 11 0;
#X connect 11 0 9 0;
#X connect 13 0 15 0;
#X connect 13 1 14 0;
#X connect 15 0 16 0;
#X connect 15 0 12 0;
#X connect 16 0 2 0;
#X connect 19 0 21 0;
#X connect 21 0 20 0;
#X coords 0 -1 1 1 136 17 1 60 60;
#X restore 124 436 pd serin;
#X text 121 418 serial port #;
#X msg 184 459 close;
#X msg 124 459 open 2;
#X obj 109 486 s openPort;
#X obj 189 486 s closePort;
#X obj 995 386 vsl 80 128 0 1 0 0 vol5 loadVol5 empty 0 -9 0 10 -232576
-1 -1 8890 1;
#X obj 1072 216 vu 15 120 vu5 empty -1 -8 0 10 -66577 -1 1 0;
#X obj 957 152 bng 15 250 50 0 empty empty empty 17 7 0 10 -262144
-1 -1;
#N canvas 0 22 450 278 (subpatch) 0;
#X array left5 7.6734e+06 float 0;
#X coords 0 1 7.6734e+06 -1 80 50 1 0 0;
#X restore 956 213 graph;
#N canvas 0 22 450 278 (subpatch) 0;
#X array right5 7.6734e+06 float 0;
#X coords 0 1 7.6734e+06 -1 80 50 1 0 0;
#X restore 956 287 graph;
#X text 978 150 <-- LOAD SAMPLE 4;
#X text 960 137 6;
#N canvas 0 22 450 278 (subpatch) 0;
#X coords 0 1 100 -1 170 450 1 0 0;
#X restore 950 100 graph;
#X obj 957 172 s sample5;
#X text 1014 102 MAIN TRACK;
#X text 988 360 VOLUME MAIN TRACK;
#X connect 0 0 1 0;
#X connect 4 0 33 0;
#X connect 14 0 34 0;
#X connect 19 0 35 0;
#X connect 24 0 36 0;
#X connect 46 0 41 0;
#X connect 57 0 60 0;
#X connect 57 1 59 0;
#X connect 59 0 62 0;
#X connect 60 0 61 0;
#X connect 65 0 71 0;
#X coords 0 -1 1 1 1020 450 1 100 100;
